<svg xmlns="http://www.w3.org/2000/svg" viewBox="0 0 600 400" fill="none">
  <!-- Configuration Panel Feature -->
  <rect width="600" height="400" rx="12" fill="#111"/>
  <rect x="1" y="1" width="598" height="398" rx="11" stroke="#222" stroke-width="1"/>
  <!-- Header -->
  <rect x="20" y="20" width="180" height="14" rx="3" fill="#f5a623" opacity="0.4"/>
  <rect x="20" y="42" width="240" height="8" rx="2" fill="#555"/>
  <!-- Tab navigation -->
  <rect x="20" y="68" width="560" height="36" rx="6" fill="#161616"/>
  <rect x="28" y="76" width="80" height="20" rx="4" fill="#f5a623" opacity="0.15"/>
  <rect x="120" y="80" width="70" height="12" rx="3" fill="#444"/>
  <rect x="202" y="80" width="60" height="12" rx="3" fill="#444"/>
  <rect x="274" y="80" width="75" height="12" rx="3" fill="#444"/>
  <rect x="361" y="80" width="65" height="12" rx="3" fill="#444"/>
  <!-- Form fields -->
  <rect x="20" y="120" width="270" height="56" rx="8" fill="#161616" stroke="#222" stroke-width="1"/>
  <rect x="36" y="132" width="80" height="8" rx="2" fill="#555"/>
  <rect x="36" y="148" width="238" height="18" rx="4" fill="#1a1a1a" stroke="#333" stroke-width="1"/>
  <rect x="300" y="120" width="280" height="56" rx="8" fill="#161616" stroke="#222" stroke-width="1"/>
  <rect x="316" y="132" width="90" height="8" rx="2" fill="#555"/>
  <rect x="316" y="148" width="248" height="18" rx="4" fill="#1a1a1a" stroke="#333" stroke-width="1"/>
  <rect x="20" y="186" width="270" height="56" rx="8" fill="#161616" stroke="#222" stroke-width="1"/>
  <rect x="36" y="198" width="70" height="8" rx="2" fill="#555"/>
  <rect x="36" y="214" width="238" height="18" rx="4" fill="#1a1a1a" stroke="#333" stroke-width="1"/>
  <rect x="300" y="186" width="280" height="56" rx="8" fill="#161616" stroke="#222" stroke-width="1"/>
  <rect x="316" y="198" width="100" height="8" rx="2" fill="#555"/>
  <!-- Dropdown -->
  <rect x="316" y="214" width="248" height="18" rx="4" fill="#1a1a1a" stroke="#f5a623" stroke-width="1" opacity="0.5"/>
  <path d="M548,220 L552,226 L556,220" stroke="#f5a623" stroke-width="1.5" fill="none" opacity="0.5"/>
  <!-- Toggle switches -->
  <rect x="20" y="252" width="560" height="44" rx="8" fill="#161616" stroke="#222" stroke-width="1"/>
  <rect x="36" y="268" width="120" height="8" rx="2" fill="#555"/>
  <rect x="520" y="264" width="40" height="20" rx="10" fill="#f5a623" opacity="0.3"/>
  <circle cx="548" cy="274" r="8" fill="#f5a623" opacity="0.6"/>
  <rect x="20" y="304" width="560" height="44" rx="8" fill="#161616" stroke="#222" stroke-width="1"/>
  <rect x="36" y="320" width="140" height="8" rx="2" fill="#555"/>
  <rect x="520" y="316" width="40" height="20" rx="10" fill="#333"/>
  <circle cx="532" cy="326" r="8" fill="#555"/>
  <!-- Action buttons -->
  <rect x="380" y="366" width="90" height="28" rx="6" fill="#222" stroke="#333" stroke-width="1"/>
  <rect x="396" y="376" width="58" height="8" rx="2" fill="#555"/>
  <rect x="480" y="366" width="100" height="28" rx="6" fill="#f5a623" opacity="0.8"/>
  <rect x="500" y="376" width="60" height="8" rx="2" fill="#0a0a0a"/>
</svg>
