<svg xmlns="http://www.w3.org/2000/svg" viewBox="0 0 600 400" fill="none">
  <!-- Data Grid Feature -->
  <rect width="600" height="400" rx="12" fill="#111"/>
  <rect x="1" y="1" width="598" height="398" rx="11" stroke="#222" stroke-width="1"/>
  <!-- Header -->
  <rect x="20" y="20" width="140" height="14" rx="3" fill="#f5a623" opacity="0.4"/>
  <rect x="20" y="42" width="200" height="8" rx="2" fill="#555"/>
  <!-- Table header -->
  <rect x="20" y="70" width="560" height="32" rx="6" fill="#1a1a1a"/>
  <rect x="36" y="80" width="60" height="10" rx="2" fill="#f5a623" opacity="0.3"/>
  <rect x="140" y="80" width="80" height="10" rx="2" fill="#f5a623" opacity="0.3"/>
  <rect x="270" y="80" width="70" height="10" rx="2" fill="#f5a623" opacity="0.3"/>
  <rect x="390" y="80" width="60" height="10" rx="2" fill="#f5a623" opacity="0.3"/>
  <rect x="500" y="80" width="50" height="10" rx="2" fill="#f5a623" opacity="0.3"/>
  <!-- Table rows -->
  <rect x="20" y="108" width="560" height="1" fill="#222"/>
  <rect x="36" y="118" width="50" height="8" rx="2" fill="#444"/>
  <rect x="140" y="118" width="90" height="8" rx="2" fill="#333"/>
  <rect x="270" y="118" width="60" height="8" rx="2" fill="#333"/>
  <rect x="390" y="116" width="50" height="12" rx="6" fill="#28c840" opacity="0.2"/>
  <rect x="500" y="118" width="40" height="8" rx="2" fill="#333"/>
  <rect x="20" y="138" width="560" height="1" fill="#1a1a1a"/>
  <rect x="36" y="148" width="45" height="8" rx="2" fill="#444"/>
  <rect x="140" y="148" width="100" height="8" rx="2" fill="#333"/>
  <rect x="270" y="148" width="55" height="8" rx="2" fill="#333"/>
  <rect x="390" y="146" width="55" height="12" rx="6" fill="#ff5f57" opacity="0.2"/>
  <rect x="500" y="148" width="35" height="8" rx="2" fill="#333"/>
  <rect x="20" y="168" width="560" height="1" fill="#222"/>
  <rect x="36" y="178" width="55" height="8" rx="2" fill="#444"/>
  <rect x="140" y="178" width="80" height="8" rx="2" fill="#333"/>
  <rect x="270" y="178" width="65" height="8" rx="2" fill="#333"/>
  <rect x="390" y="176" width="45" height="12" rx="6" fill="#28c840" opacity="0.2"/>
  <rect x="500" y="178" width="45" height="8" rx="2" fill="#333"/>
  <rect x="20" y="198" width="560" height="1" fill="#1a1a1a"/>
  <rect x="36" y="208" width="40" height="8" rx="2" fill="#444"/>
  <rect x="140" y="208" width="85" height="8" rx="2" fill="#333"/>
  <rect x="270" y="208" width="50" height="8" rx="2" fill="#333"/>
  <rect x="390" y="206" width="60" height="12" rx="6" fill="#febc2e" opacity="0.2"/>
  <rect x="500" y="208" width="30" height="8" rx="2" fill="#333"/>
  <rect x="20" y="228" width="560" height="1" fill="#222"/>
  <rect x="36" y="238" width="50" height="8" rx="2" fill="#444"/>
  <rect x="140" y="238" width="75" height="8" rx="2" fill="#333"/>
  <rect x="270" y="238" width="60" height="8" rx="2" fill="#333"/>
  <rect x="390" y="236" width="50" height="12" rx="6" fill="#28c840" opacity="0.2"/>
  <rect x="500" y="238" width="40" height="8" rx="2" fill="#333"/>
  <rect x="20" y="258" width="560" height="1" fill="#1a1a1a"/>
  <rect x="36" y="268" width="48" height="8" rx="2" fill="#444"/>
  <rect x="140" y="268" width="95" height="8" rx="2" fill="#333"/>
  <rect x="270" y="268" width="55" height="8" rx="2" fill="#333"/>
  <rect x="390" y="266" width="55" height="12" rx="6" fill="#28c840" opacity="0.2"/>
  <rect x="500" y="268" width="35" height="8" rx="2" fill="#333"/>
  <!-- Pagination -->
  <rect x="20" y="300" width="560" height="1" fill="#222"/>
  <rect x="430" y="316" width="30" height="24" rx="4" fill="#f5a623" opacity="0.15"/>
  <rect x="468" y="316" width="30" height="24" rx="4" fill="#1a1a1a"/>
  <rect x="506" y="316" width="30" height="24" rx="4" fill="#1a1a1a"/>
  <!-- Inline action icons -->
  <rect x="20" y="356" width="120" height="10" rx="2" fill="#555" opacity="0.5"/>
  <rect x="20" y="374" width="200" height="8" rx="2" fill="#333"/>
</svg>
